<svg width="374" height="377" viewBox="0 0 374 377" fill="none" xmlns="http://www.w3.org/2000/svg">
<path d="M373.01 181.445C371.381 278.668 301.044 360.41 206.266 374.26C109.044 388.382 19.1544 321.576 3.40334 224.625C-8.81731 150.215 25.1289 74.7185 82.7018 35.3408C116.376 11.7142 154.125 0.0367145 195.403 1.12299C200.02 1.39456 204.365 0.308284 208.982 0.579854C214.685 0.851425 220.659 0.851425 226.362 1.9377C298.6 16.0593 354.543 72.0028 368.122 144.512C370.566 156.733 371.381 169.225 373.01 181.445Z" fill="#EA552B"/>
<path fill-rule="evenodd" clip-rule="evenodd" d="M177.208 33.1683C186.17 32.8968 188.343 35.884 186.17 42.4017C185.909 43.0538 185.664 43.7372 185.416 44.4293L185.416 44.4295C184.63 46.6199 183.813 48.8979 182.368 50.5488C176.122 58.1528 169.604 65.4851 163.087 72.546C161.723 74.1365 159.6 75.1567 157.67 76.0837L157.669 76.084C157.293 76.2649 156.924 76.4422 156.569 76.6195C152.224 78.2489 147.879 77.7058 144.348 74.447C140.546 71.1881 139.46 66.5714 141.089 61.9547C142.176 58.6959 143.805 55.1655 146.249 52.9929C153.039 47.0184 160.371 41.587 167.703 36.4272C170.31 34.9064 173.613 34.0808 175.803 33.5333L175.803 33.5333C176.35 33.3964 176.828 33.2769 177.208 33.1683ZM225.819 75.2617C222.832 84.7667 229.35 93.7285 240.212 94C246.459 94 251.347 89.3834 255.42 83.6804C256.142 82.6256 256.864 81.5821 257.581 80.5453C260.371 76.5106 263.092 72.5775 265.468 68.4725C267.369 65.4852 268.999 61.9548 269.814 58.4244C271.443 52.4498 267.913 48.9194 261.666 49.7341C258.408 50.0057 255.149 51.092 252.433 52.7214C246.459 55.9802 240.484 59.7822 234.781 63.5842C230.436 66.2999 227.177 70.3735 225.819 75.2617ZM108.772 69.5587C108.303 70.7789 107.931 71.8369 107.6 72.7775C106.974 74.5584 106.496 75.9187 105.785 77.1627C104.631 78.8595 103.494 80.5733 102.358 82.2872L102.357 82.2885C98.945 87.4314 95.5334 92.5743 91.6636 97.2589C84.6028 105.949 77.2704 114.096 69.938 122.243L69.938 122.243C67.7654 124.687 65.3213 126.86 62.334 128.489C57.7173 130.934 53.1006 130.662 49.0271 127.403C44.9535 123.873 43.8672 119.256 45.4966 114.368C46.3114 111.652 47.9408 108.665 50.1133 106.764C51.6191 105.392 53.1166 104.016 54.6119 102.642L54.6122 102.642L54.6125 102.641L54.6129 102.641C65.2535 92.8635 75.7853 83.186 88.4047 75.8048C91.6636 73.9038 95.4655 72.2744 98.9959 70.9166C100.647 70.3661 102.547 70.1875 104.946 69.9621C106.097 69.8539 107.363 69.7349 108.772 69.5587ZM164.716 144.784C155.483 144.512 148.693 135.822 151.137 126.86C151.952 123.601 153.853 120.071 156.026 117.898C164.444 109.48 173.135 101.332 182.368 93.7285C186.17 90.4696 191.601 88.8402 196.49 87.4823C203.822 85.5814 206.809 89.1118 204.365 96.4442C204.094 97.123 203.822 97.8698 203.551 98.6165C203.279 99.3634 203.007 100.11 202.736 100.789C196.218 114.639 187.256 127.132 177.48 139.081C174.221 142.883 169.876 144.784 164.716 144.784ZM158.47 287.086C158.198 292.246 156.297 297.677 153.31 302.837C146.792 313.972 138.374 323.477 129.412 332.71C125.067 337.055 119.907 338.685 113.932 336.784C106.871 334.611 102.526 327.279 104.427 319.675C105.242 316.416 106.871 313.157 109.316 310.713C116.105 303.109 123.166 295.776 130.77 288.716C133.998 285.718 138.008 283.504 141.805 281.408C142.48 281.035 143.149 280.666 143.805 280.297C145.706 279.211 147.879 278.668 150.051 278.396C156.026 277.581 158.741 280.025 158.47 287.086ZM209.718 245.026C209.307 246.107 208.894 247.19 208.439 248.252C208.982 258.3 217.672 264.818 226.905 261.559C230.436 260.472 233.966 258.571 236.139 255.856C243.743 246.622 251.075 236.846 257.864 226.798C260.309 223.267 261.395 218.651 261.938 214.577C262.753 208.331 259.222 205.072 252.976 206.43C249.989 206.973 246.73 208.059 244.014 209.689C232.337 217.021 222.017 225.983 213.599 237.117C211.837 239.466 210.781 242.238 209.719 245.026L209.718 245.026ZM194.317 328.637C194.86 327.55 195.313 326.404 195.765 325.257C196.671 322.964 197.576 320.67 199.205 318.86C203.279 313.972 207.896 309.355 213.055 305.01C219.302 299.85 225.819 295.233 232.337 290.617C236.139 288.173 240.212 285.728 244.286 284.371C246.459 283.556 249.717 284.099 251.618 285.457C254.334 287.086 254.062 290.345 252.705 293.061C250.804 296.863 248.903 300.393 246.73 303.652C241.842 310.441 236.682 317.502 231.251 323.748C227.177 328.637 222.56 332.982 217.944 337.055C215.771 338.956 212.784 340.314 209.797 341.129C201.378 343.573 194.589 337.598 194.317 328.637ZM327.362 253.243L327.363 253.238C327.475 252.888 327.573 252.58 327.658 252.325C328.201 242.549 323.313 237.932 315.709 239.29C311.907 240.376 307.833 242.277 304.846 244.721C297.242 251.239 290.181 258.3 283.12 265.361C280.676 267.805 279.047 271.064 277.961 274.322C274.702 285.185 283.935 294.962 294.798 291.703C298.328 290.888 301.587 288.716 304.303 286.272C312.45 278.939 318.968 270.249 324.399 260.744C325.772 258.226 326.76 255.129 327.362 253.243ZM225.548 158.634C223.918 165.423 229.078 171.397 237.497 171.397C238.04 171.126 238.764 170.854 239.569 170.553C241.178 169.949 243.109 169.225 244.558 168.139C248.088 164.88 251.347 161.349 254.062 157.547C258.408 151.573 262.481 145.327 266.283 139.081C268.808 134.808 271.054 130.397 273.321 125.947C274.225 124.173 275.131 122.394 276.06 120.614C276.874 118.984 277.689 117.355 277.961 115.726C279.047 111.924 277.146 110.023 273.616 111.38C271.443 112.195 269.27 113.281 267.369 114.639C254.676 122.853 244.264 133.803 233.833 144.774L233.827 144.779C232.878 145.777 231.93 146.775 230.979 147.771C228.263 150.487 226.362 154.832 225.548 158.634ZM199.477 174.385C201.649 177.644 200.835 180.631 199.477 183.075C197.304 187.692 194.589 192.308 191.601 196.382C190.774 197.577 189.947 198.78 189.117 199.987L189.116 199.987C185.043 205.91 180.905 211.924 176.393 217.564C173.406 221.366 169.876 225.168 166.074 228.156C161.186 231.686 155.754 231.414 151.681 228.156C147.335 224.897 145.706 219.194 148.15 213.491C150.051 209.417 152.767 205.072 156.297 202.085C164.473 194.931 172.89 188.498 181.547 181.881L181.548 181.881L181.549 181.88L181.55 181.879L181.551 181.878L181.552 181.877L181.553 181.877L181.554 181.876L181.595 181.844L182.388 181.238L183.183 180.631C186.17 178.458 189.429 176.829 192.959 175.471C194.492 174.704 196.161 174.614 197.678 174.532C198.311 174.497 198.917 174.465 199.477 174.385ZM143.468 167.886C143.666 167.147 143.862 166.411 144.077 165.695C143.805 165.423 143.534 165.219 143.262 165.016L143.262 165.016C142.99 164.812 142.719 164.608 142.447 164.337C141.541 164.531 140.636 164.71 139.733 164.887C136.849 165.456 134.002 166.018 131.313 167.052C116.377 172.212 104.156 181.717 92.7499 192.58C91.1205 194.209 89.7627 196.382 88.9479 198.555C87.047 203.443 87.5901 208.059 91.3921 211.861C95.1941 215.663 99.8108 216.207 104.699 214.306C106.872 213.491 109.044 212.133 110.674 210.504C117.191 204.529 123.437 198.555 129.14 192.037C133.293 187.151 136.787 181.387 140.214 175.732C140.597 175.1 140.979 174.469 141.361 173.842C142.36 172.043 142.919 169.949 143.468 167.886ZM74.0116 163.522C73.4819 165.288 73.0383 167.082 72.5968 168.868C71.6803 172.575 70.7729 176.245 69.1233 179.545C65.3213 187.692 61.2478 195.567 56.3595 202.9C53.9154 206.43 50.1134 209.689 46.3114 211.861C41.4232 214.577 36.2633 213.762 31.9182 209.96C27.5731 205.887 27.0299 200.999 28.9309 195.567C29.036 195.322 29.1411 195.072 29.2474 194.82C29.9649 193.115 30.7355 191.284 31.9182 189.864C33.0375 188.601 34.1472 187.332 35.2549 186.066C42.479 177.808 49.6205 169.644 58.8036 163.522C61.5193 161.621 64.7782 159.992 68.037 158.905C71.839 157.819 73.4684 159.72 74.0116 163.522ZM346.668 162.979C347.483 158.09 344.495 155.103 338.521 155.375C337.965 155.56 337.284 155.714 336.551 155.879C335.134 156.198 333.528 156.56 332.275 157.276L330.902 158.305L330.902 158.305C322.698 164.455 314.75 170.412 307.29 177.1C303.488 180.359 301.859 185.247 301.859 190.136C301.587 201.27 311.907 207.788 321.412 202.085C324.942 199.912 328.201 196.925 330.374 193.666C334.99 186.877 339.335 179.816 343.409 172.755C345.038 169.768 346.125 166.238 346.668 162.979ZM125.067 235.216C126.968 239.29 125.882 243.092 124.252 246.351C121.265 252.325 118.006 258.3 113.932 263.731C108.773 270.792 103.07 277.31 97.3666 283.827C95.7372 285.728 93.5647 287.629 91.3921 288.716C84.6029 292.518 76.9989 288.444 75.9126 280.84C75.0979 276.223 76.7273 272.15 79.7146 268.891C91.9352 255.313 106.057 243.635 122.623 235.76C122.938 235.602 123.346 235.536 123.845 235.455L123.845 235.455C124.205 235.396 124.612 235.33 125.067 235.216ZM140.204 91.2943C140.456 90.2885 140.727 89.2023 141.089 88.0254C140.373 88.1845 139.797 88.3203 139.32 88.4328C138.168 88.7044 137.592 88.8402 137.016 88.8402C136.427 89.1764 135.865 89.4867 135.32 89.787C134.106 90.4569 132.981 91.0774 131.856 91.8274C120.57 99.1299 111.268 108.416 101.892 117.775C99.762 119.902 97.6277 122.032 95.4655 124.144C92.2067 127.403 90.3057 131.205 90.0341 135.822C89.7626 140.167 91.1204 143.697 94.9224 145.87C98.7244 148.314 102.798 148.042 106.057 145.598C109.316 143.154 112.031 139.895 114.475 136.636C118.821 130.662 122.623 124.416 126.425 118.17C127.501 116.231 128.578 114.312 129.65 112.401C132.633 107.085 135.577 101.838 138.374 96.4441C139.279 94.9957 139.701 93.306 140.204 91.2943Z" fill="#FBE8DE"/>
</svg>
