<svg xmlns="http://www.w3.org/2000/svg" width="147" height="162" viewBox="0 0 147 162" fill="none">
<path d="M37.5386 66.7831C36.8581 66.1954 36.5726 65.9122 36.1562 65.717C28.6782 60.9577 26.2638 53.5528 26.0551 45.3297C25.8488 37.6752 33.5395 30.3164 41.5438 30.0649C44.7583 29.8986 47.6706 30.696 50.5638 32.1714C56.6357 35.4055 60.9206 40.2217 63.7896 46.4655C64.3415 47.7099 64.9814 49.0852 65.6213 50.4606C66.6898 49.6469 66.5542 48.5976 66.7256 47.722C68.2965 41.4382 69.8889 35.045 72.5329 29.0848C74.3748 24.8997 76.5238 20.8882 79.879 17.6811C83.2127 14.5834 86.989 12.7088 91.6264 12.821C95.1264 12.9379 97.8007 14.3705 99.7587 17.1403C101.914 20.0623 102.956 23.4483 103.386 27.0555C104.406 35.7783 102.821 43.8776 98.697 51.5936C98.3067 52.4263 97.895 53.3685 97.7902 54.4844C98.6634 54.0872 99.4487 53.559 100.322 53.1617C104.208 51.3085 108.005 49.3244 111.958 47.7116C116.302 45.8346 120.895 45.597 125.537 46.8466C135.718 49.4077 142.488 63.0064 135.573 72.7898C131.137 79.1947 125.051 83.0036 117.71 85.0897C116.137 85.5773 114.586 85.9555 113.035 86.3337C112.925 86.3123 112.904 86.4217 112.73 86.7286C113.672 87.1404 114.593 87.6615 115.535 88.0732C119.83 89.9366 123.646 92.5019 126.832 95.9666C128.502 97.8845 129.801 99.957 130.336 102.448C131.497 108.13 129.329 112.82 124.068 115.313C118.807 117.806 113.255 118.879 107.414 118.531C104.373 118.39 101.354 118.14 98.3345 117.89C93.2141 117.342 88.722 115.327 84.1824 112.393C83.8801 113.356 83.6207 114.101 83.3613 114.846C81.0145 123.932 77.1782 132.5 72.3117 140.525C71.7905 141.446 71.1599 142.345 70.5293 143.245C67.876 146.93 64.3401 148.738 59.8573 148.997C55.1342 149.323 51.6486 147.39 49.4885 143.331C47.6376 140.014 46.6386 136.409 46.5794 132.647C46.6706 122.892 48.6225 113.501 52.3042 104.562C52.7373 103.51 53.061 102.437 53.5584 101.057C52.728 101.235 52.1593 101.238 51.5478 101.459C44.9282 103.345 38.3086 105.232 31.7104 107.008C29.4381 107.586 27.2538 108.295 25.0028 108.764C22.8828 109.144 20.8507 109.656 18.6855 109.686C11.3808 109.848 6.76528 104.398 8.02461 96.8036C8.62214 93.1703 10.1619 89.9488 12.206 87.0533C18.1409 78.2144 25.7031 71.5123 35.6826 67.5563C36.1846 67.3136 36.6653 67.1804 37.5386 66.7831Z" fill="#F7D046"/>
<path d="M92.0213 85.6981C90.6294 91.5545 86.8155 96.7392 80.642 99.9298C76.5453 102.044 72.1125 102.363 67.6848 101.15C64.979 100.423 62.6302 98.8754 60.6675 96.8602C55.747 91.8935 53.5273 85.9233 53.8573 78.9693C53.9721 76.125 54.5505 73.4209 55.6491 70.8187C57.2172 67.0726 59.7045 64.1491 63.2345 62.171C66.9343 60.0779 70.94 59.1815 75.1384 59.5584C77.9374 59.8097 80.4267 60.8901 82.7097 62.5232C85.1632 64.2886 87.3056 66.3884 89.0239 68.8995C92.3084 73.6943 93.2312 79.0152 92.0213 85.6981Z" fill="black"/>
</svg>