<svg xmlns="http://www.w3.org/2000/svg" width="104" height="100" viewBox="0 0 104 100" fill="none">
<path fill-rule="evenodd" clip-rule="evenodd" d="M42.7286 38.4284C42.892 38.8105 43.0579 39.1986 43.209 39.6016C43.4343 39.5265 43.6267 39.4843 43.8006 39.4462C44.0233 39.3973 44.2157 39.3552 44.4081 39.259C44.4467 39.124 44.4852 38.9913 44.5233 38.8602C44.8235 37.8263 45.0933 36.897 45.0933 35.8328C45.0933 27.0962 45.0933 18.3597 44.922 9.62306C44.922 8.76653 44.922 7.73869 44.4081 7.22478C43.5516 6.36825 42.5237 5.51172 41.4959 5.51172C40.8107 5.51172 39.6116 6.53955 39.2689 7.56739C38.755 8.59522 38.755 9.96567 38.9263 11.1648C39.6971 18.5639 40.6065 25.8242 41.5298 33.1955C41.6326 34.016 41.7356 34.8379 41.8385 35.6615C41.9595 36.629 42.3365 37.5112 42.7286 38.4284ZM94.8996 44.4807C95.9868 44.1437 97.0798 43.8048 98.198 43.5416C98.198 43.3703 98.0268 43.0278 97.8555 42.6852L97.8554 42.6851L59.8255 42.6851C59.1403 42.6851 58.2838 42.6851 57.7699 43.0277C57.6914 43.0905 57.61 43.1547 57.5268 43.2204C56.7022 43.8714 55.6985 44.6637 55.5429 45.5973C55.3716 47.1391 56.5707 47.9956 58.1125 48.3382C59.1403 48.5095 59.9968 48.5095 61.0247 48.5095H61.0247L61.0249 48.5095L61.0251 48.5095C70.6181 47.6529 80.2111 46.7964 89.6327 45.7686C91.4267 45.5576 93.1556 45.0215 94.8996 44.4807ZM48.957 92.7063C49.2235 93.2202 49.4899 93.7341 49.7183 94.2481C50.061 94.2481 50.4036 94.0768 50.7462 93.9055C50.7462 93.7341 50.8318 93.5628 50.9175 93.3915C51.0031 93.2202 51.0888 93.0489 51.0888 92.8776L51.0888 65.2974C51.0888 64.0983 50.9175 62.8991 50.7462 61.7L50.7462 61.7C50.4036 59.9869 49.2044 58.7878 47.3201 58.7878C45.2644 58.7878 44.4079 60.3295 44.2366 62.0426C44.1235 62.7212 44.1597 63.3251 44.1974 63.953V63.9531V63.9531V63.9532C44.2168 64.2762 44.2366 64.6056 44.2366 64.9548C44.4079 67.5244 44.5792 70.094 44.9218 72.6635C45.7783 78.3166 46.6348 83.9697 47.6627 89.6228C47.8911 90.6506 48.424 91.6785 48.957 92.7063ZM43.0376 48.1668C42.4706 48.3558 41.9268 48.5679 41.3892 48.7777L41.3891 48.7777C40.4647 49.1384 39.5584 49.4919 38.5836 49.7086C30.7864 50.9316 22.8528 52.0183 15.0263 53.0903L15.0256 53.0903C14.0829 53.2195 13.1417 53.3484 12.2025 53.4773C10.8321 53.6486 9.29034 53.8199 8.0912 53.306C7.23467 52.7921 5.86423 51.7642 5.86423 50.9077C5.86423 50.0512 6.89206 49.0233 7.74859 48.1668C8.0912 47.8242 8.94773 47.6529 9.63295 47.6529C19.0548 47.3103 28.4766 46.9677 37.8984 46.7964C39.4402 46.7964 41.1532 46.9677 42.695 47.139C42.7806 47.3103 42.8234 47.4816 42.8663 47.6528L42.8663 47.6529L42.8663 47.6529C42.9091 47.8242 42.9519 47.9955 43.0376 48.1668Z" fill="black"/>
</svg>