<svg xmlns="http://www.w3.org/2000/svg" width="327" height="260" viewBox="0 0 327 260" fill="none">
<path d="M292.588 201.409C285.09 216.484 277.956 231.438 270.214 246.392C255.455 274.235 235.587 297.717 212.191 318.534C207.462 322.551 202.248 326.327 196.789 329.375C180.292 338.761 162.697 346.085 144.733 351.102C133.444 354.283 122.03 355.279 110.489 353.481C98.7039 351.563 86.9193 349.644 75.2543 346.875C58.0006 343.147 43.1644 333.947 29.176 323.654C26.2569 321.595 23.2156 319.172 20.4174 316.871C6.18469 305.849 -4.77376 292.512 -11.9741 275.888C-20.8829 255.382 -30.399 234.877 -32.1468 212.169C-33.7687 191.648 -35.3905 171.126 -32.0334 150.351C-29.2734 134.435 -27.1206 118.521 -23.8743 102.847C-22.1901 95.1921 -19.4148 86.5633 -15.9088 78.9046C-10.3468 67.1123 -3.81215 55.8037 2.23616 44.2533C6.95412 35.3776 11.1858 26.26 15.7828 17.6274C17.2341 14.7095 18.4422 11.6708 20.1367 8.87386C24.9768 0.362215 32.992 0.10252 37.8678 8.59382C41.1599 14.7809 43.967 21.3333 45.5596 27.8883C48.8657 40.755 51.2004 53.7453 53.8993 66.6134C55.4957 74.9901 56.4848 83.3681 58.0812 91.7448C59.3084 97.8147 61.386 104.004 63.7055 109.708C67.6113 118.93 73.0803 120.74 81.6913 115.014C87.513 111.237 92.8471 106.61 97.6949 101.742C117.328 81.7832 136.961 61.8243 156.351 41.7444C168.833 28.8446 181.803 16.7938 196.233 6.076C198.78 4.00601 201.448 2.30013 204.725 1.20022C211.399 -1.24277 217.845 2.87303 217.981 9.91686C217.99 14.1676 217.029 19.149 215.337 23.1604C211.591 32.5199 207.117 41.5166 203.249 50.512C193.702 73.3646 185.492 96.5788 179.835 120.759C178.631 125.62 178.277 130.6 177.923 135.58C177.575 143.597 179.655 151.001 183.799 157.915C186.359 162.524 190.251 165.067 195.715 164.448C201.179 163.829 206.521 162.846 211.618 161.136C226.789 156.246 240.985 149.658 254.691 141.006C268.881 131.989 282.951 123.215 297.142 114.198C301.144 111.639 305.39 109.201 309.88 107.492C319.224 103.95 326.523 109.4 326.058 119.481C325.35 129.442 321.727 139.165 317.616 148.04C310.002 165.787 301.659 183.172 293.801 200.799C293.074 201.651 292.831 201.53 292.588 201.409Z" fill="#EE8DB9"/>
</svg>