<svg width="512" height="504" viewBox="0 0 512 504" fill="none" xmlns="http://www.w3.org/2000/svg">
<path d="M209.129 439.707C192.912 429.188 176.801 418.74 160.831 408.081C149.091 400.245 137.705 391.88 127.341 382.211C109.047 365.414 94.4927 345.762 83.8898 323.396C73.1459 300.784 66.4233 276.728 63.2984 251.863C60.2436 227.809 63.1838 204.393 69.9328 181.227C76.8938 157.284 88.2619 135.672 102.874 115.613C116.709 96.7173 134.386 81.915 153.79 68.877C165.821 60.7017 179.296 56.0892 193.616 53.4169C225.112 47.6859 255.157 52.6049 284.069 65.6346C297.467 71.6728 311.042 77.6757 324.263 84.2076C337.203 90.7039 349.789 97.7291 362.446 104.649C369.956 108.744 377.395 112.945 384.763 117.251C404.789 128.936 423.861 142.278 442.192 156.501C454.671 166.206 466.233 176.828 477.759 187.732C482.517 192.284 487.594 196.59 492.493 200.93C493.374 201.671 494.079 202.447 494.89 203.294C497.71 205.941 498.555 209.257 497.847 213.065C496.574 219.553 494.49 225.654 491.312 231.33C486.017 241.096 481.003 250.897 474.685 260.134C473.415 262.037 472.532 264.047 471.367 266.022C468.614 270.605 464.98 272.154 459.761 270.811C454.754 269.609 450.1 267.42 445.87 264.597C438.043 259.373 430.252 253.867 422.708 248.22C401.804 232.585 380.017 218.042 357.877 204.029C345.608 196.299 333.516 188.533 321 181.402C302.455 170.706 283.416 161.208 262.824 154.954C252.951 151.881 242.936 149.935 232.603 149.612C219.871 149.217 208.055 152.032 196.908 158.198C185.372 164.716 175.421 173.209 166.987 183.326C161.058 190.376 155.729 197.674 151.704 205.995C149.444 210.754 147.607 215.797 146.828 221.086C142.863 249.474 146.092 276.702 159.797 302.208C165.892 313.462 173.997 323.306 182.809 332.551C198.882 349.241 215.272 365.685 232.72 381C255.492 400.939 279.887 418.445 306.435 432.955C314.156 437.191 321.701 441.463 329.21 446.016C332.348 447.958 335.168 450.146 338.094 452.405C339.187 453.287 340.209 454.275 341.09 455.475C342.641 457.733 344.156 459.814 346.977 461.085C349.691 462.286 350.466 465.249 349.759 468.14C348.133 475.158 346.224 482.139 341.213 487.815C339.202 490.141 337.719 492.821 336.025 495.359C335.319 496.417 334.542 497.58 333.836 498.638C330.801 502.727 326.85 504.523 321.878 503.039C317.294 501.661 312.71 500.283 308.444 498.2C299.207 493.716 290.11 489.02 281.12 483.937C272.13 478.853 263.175 473.488 254.467 467.981C239.484 458.592 224.571 449.097 209.658 439.601C209.2 439.601 209.129 439.707 209.129 439.707Z" fill="#F7D046"/>
<path d="M356.964 436.103C357.352 436.209 357.563 436.35 357.845 436.385C362.323 438.151 363.767 441.255 362.495 445.91C360.658 452.328 357.692 458.145 354.55 463.998C353.067 466.677 351.479 469.286 349.996 471.965C347.631 476.196 343.962 477.57 339.237 477.32C331.09 476.928 323.685 474.278 316.74 470.254C308.737 465.524 300.769 460.511 292.802 455.499C282.895 449.498 273.059 443.391 263.082 437.496C252.505 431.354 241.822 425.599 231.316 419.351C208.118 405.549 186.614 389.666 168.321 369.66C147.773 347.077 131.706 321.676 121.706 292.681C107.622 252.398 109.76 212.547 128.367 173.905C138.112 153.808 151.453 136.111 167.72 120.673C174.107 114.54 181.586 109.748 189.911 106.438C217.073 95.5199 226.736 95.7016 252.373 100.124C270.216 103.167 287.141 109.419 303.783 116.094C320.32 122.698 335.691 131.276 350.569 141.054C367.456 152.172 384.272 163.397 400.806 175.044C422.451 190.256 442.861 207.09 462.001 225.369C467.077 230.133 471.941 235.214 476.805 240.296C477.862 241.46 478.955 242.801 479.765 244.106C482.161 247.846 482.406 251.831 480.253 255.745C478.064 259.94 476.051 264.101 473.333 267.943C468.357 275.17 463.239 282.15 457.839 289.095C454.84 292.902 451.522 296.497 448.205 300.093C444.147 304.569 439.985 305.308 434.873 302.201C431.348 300.154 427.963 297.895 424.72 295.424C415.096 288.083 405.402 280.848 396.06 273.084C390.667 268.567 385.803 263.486 380.868 258.51C374.77 252.3 368.249 246.724 361.057 241.924C349.6 234.123 337.931 226.64 326.438 219.122C321.15 215.592 315.332 213.085 309.549 210.754C302.039 207.576 294.741 204.08 287.231 200.902C278.733 197.371 270.2 194.121 261.809 190.66C255.533 188.153 249.363 185.258 242.945 182.962C231.274 178.688 219.636 179.175 208.066 183.683C201.011 186.465 195.683 191.011 191.8 197.287C187.564 204.091 184.703 211.354 183.57 219.465C182.685 226.06 181.588 232.513 180.491 238.966C179.323 245.984 179.46 253.108 180.409 260.162C182.27 274.552 185.789 288.52 190.789 302.1C195.613 315.258 203.754 326.195 213.447 336.181C226.488 349.625 241.118 360.919 256.947 370.873C275.914 382.769 295.34 393.748 315.155 404.374C325.732 410.058 336.097 416.059 346.532 421.955C351.997 424.991 355.698 429.295 356.611 435.714C356.788 435.679 356.893 435.75 356.964 436.103Z" fill="#EE8DB9"/>
<path d="M361.542 268.24C345.889 257.792 330.448 247.027 314.513 237.002C298.12 226.519 281.056 217.269 263.25 209.359C256.904 206.499 250.451 204.027 243.999 201.554C238.251 199.4 232.292 198.48 225.943 198.829C221.323 199.108 217.196 200.482 213.421 203.16C205.095 209.221 199.201 216.906 196.056 226.885C191.746 241.13 191.949 255.484 195.292 269.946C199.302 287.299 207.97 302.257 219.424 315.56C228.482 326.039 239.022 334.756 250.233 342.697C272.936 358.615 296.31 373.3 320.319 387.032C328.921 392.009 337.418 397.375 346.02 402.352C349.757 404.541 353.671 406.694 357.549 408.672C360.299 410.048 363.085 411.143 365.905 412.415C369.854 414.286 371.157 417.602 369.603 421.762C369.109 422.961 368.614 424.16 367.943 425.394C366.778 427.827 365.719 430.33 365.259 433.081C364.445 437.277 362.468 441.155 359.962 444.681C357.774 447.959 354.423 449.086 350.579 448.202C348.358 447.637 346.172 446.789 343.986 445.941C328.577 439.937 313.451 433.51 298.749 425.99C288.454 420.8 278.335 415.116 268.217 409.433C255.066 401.878 242.198 393.901 229.966 384.971C208.391 369.195 190.627 350 177.697 326.54C165.965 305.408 157.76 283.115 155.587 258.885C155.132 252.924 154.853 246.929 155.209 240.898C155.672 232.188 156.418 223.512 157.516 214.767C159.075 202.353 163.137 190.541 168.927 179.576C177.647 162.618 192.324 153.456 210.876 150.399C218.424 149.168 225.935 149.596 233.341 150.87C245.965 153.028 257.883 157.161 269.766 162.034C303.227 175.807 334.393 193.705 363.794 214.706C377.261 224.306 390.092 234.858 403.276 244.881C412.336 251.693 421.643 258.363 430.844 264.963C436.308 268.916 442.055 272.446 447.484 276.223C448.753 277.07 450.022 277.917 451.15 278.976C455.028 282.328 455.907 286.279 453.401 290.721C449.835 297.208 446.058 303.554 442.104 309.935C438.116 316.14 432.896 317.089 426.656 312.924C421.368 309.395 416.326 305.724 411.109 302.089C394.61 290.618 378.147 279.323 361.648 267.852C361.613 268.134 361.613 268.134 361.542 268.24Z" fill="#EA552B"/>
</svg>
