<svg xmlns="http://www.w3.org/2000/svg" width="249" height="250" viewBox="0 0 249 250" fill="none">
<path d="M110.516 118.124C111.335 116.78 112.121 115.558 112.845 114.32C116.457 107.928 120.008 101.521 124.137 95.3986C131.625 84.3153 139.72 73.6551 147.922 63.0885C157.015 51.3932 165.985 39.6652 175.017 27.9536C176.443 26.0561 178.019 24.3293 179.611 22.5418C180.189 21.8501 180.934 21.2683 181.708 20.8245C183.024 20.0698 184.254 20.8553 183.985 22.3463C183.782 23.5943 183.456 24.8095 182.886 25.9593C180.586 30.8783 178.286 35.7974 175.818 40.6067C169.157 53.7351 162.435 66.8471 156.352 80.2607C152.794 88.164 149.419 96.1164 146.044 104.069C143.051 111.082 140.258 118.083 137.388 125.129C136.973 126.19 136.619 127.267 136.122 128.632C136.831 128.431 137.185 128.331 137.556 128.169C139.071 127.403 140.647 126.653 142.072 125.733C157.215 116.635 173.412 109.709 190.099 103.891C191.1 103.573 192.102 103.255 193.149 103.015C193.703 102.903 194.286 102.929 194.791 102.999C195.784 103.2 196.339 104.065 196.078 105.037C195.883 105.766 195.533 106.584 194.987 107.154C193.659 108.687 192.332 110.22 190.809 111.505C185.775 115.627 180.742 119.748 175.618 123.716C167.933 129.667 160.143 135.524 152.397 141.459C150.922 142.562 149.538 143.819 148.198 145.153C146.251 147.041 146.203 148.2 148.089 150.203C149.523 151.695 151.051 153.081 152.672 154.362C158.522 158.925 164.779 162.946 171.069 166.845C187.05 176.858 202.701 187.369 217.724 198.754C218.649 199.457 219.651 200.116 220.576 200.82C220.955 201.117 221.273 201.397 221.558 201.8C222.157 202.741 221.571 203.952 220.434 204.038C220.035 204.062 219.591 204.008 219.224 203.909C215.114 202.873 210.988 201.898 206.927 200.679C196.654 197.471 186.56 193.594 176.576 189.551C161.912 183.668 147.548 177.15 133.47 170.056C131.568 169.091 129.633 168.246 127.714 167.342C127.303 167.166 126.892 166.991 126.387 166.921C124.798 166.495 124.028 166.679 123.177 168.145C122.057 170.124 120.999 172.12 120.062 174.148C115.954 182.881 112.135 191.756 108.606 200.774C106.322 206.61 104.205 212.555 101.86 218.374C100.04 222.966 97.9922 227.431 96.0502 231.991C95.5901 232.974 94.9467 233.909 94.3196 234.783C93.6763 235.718 92.7599 236.449 91.4768 236.105C90.3322 235.734 89.8881 234.703 89.8593 233.588C89.749 231.8 89.655 229.951 89.8664 228.185C90.3463 223.95 90.8423 219.654 91.6888 215.518C93.7478 205.39 95.9128 195.355 98.2773 185.308C99.7058 179.243 101.501 173.277 103.174 167.278C103.32 166.731 103.483 166.124 103.695 165.334C102.746 165.21 101.951 164.997 101.125 164.906C91.9354 164.006 82.7831 163.703 73.5533 163.444C57.8553 162.885 42.076 162.629 26.3087 161.596C19.6124 161.169 12.9038 160.544 6.17899 159.979C5.03035 159.867 3.85316 159.616 2.7208 159.443C2.4153 159.361 2.09352 159.34 1.8654 159.214C0.598579 158.809 0.0241627 158.265 0.113612 157.442C0.207084 156.36 1.00943 156.054 1.8566 155.825C3.75051 155.356 5.56705 154.931 7.44468 154.522C25.2231 150.494 43.1728 147.294 61.0491 143.878C69.4028 142.274 77.7319 140.273 86.0285 138.393C87.0753 138.153 88.0161 137.819 89.295 137.445C88.9405 136.569 88.7082 135.725 88.3048 135.031C86.1289 130.931 84.1079 126.743 81.6225 122.82C76.6518 114.976 71.51 107.281 66.3071 99.5704C59.9797 90.1905 53.8071 80.7217 48.4857 70.7647C47.3081 68.5606 46.2242 66.2514 45.2015 63.9585C44.904 63.3578 44.7002 62.6519 44.4964 61.9461C44.2355 60.9645 44.5083 60.191 45.2047 59.7915C45.8401 59.3756 46.6506 59.5277 47.3921 60.1822C47.665 60.3856 47.9054 60.7105 48.1783 60.9139C51.6534 64.3197 54.9736 67.8143 58.5423 71.1149C69.1588 80.8627 79.8363 90.6268 90.0619 100.856C94.9709 105.753 100.271 110.169 106.023 114.12C106.903 114.746 107.628 115.461 108.414 116.193C109.111 116.771 109.73 117.392 110.516 118.124Z" fill="#EA552B"/>
</svg>