<svg xmlns="http://www.w3.org/2000/svg" width="568" height="435" viewBox="0 0 568 435" fill="none">
<path d="M170.005 76.4846C165.349 78.7734 161.042 81.2234 156.385 83.5122C123.885 99.7886 92.2022 117.501 63.6662 139.843C55.1027 146.46 47.0752 153.748 39.4897 161.452C34.6565 166.41 30.359 172.039 27.1072 178.151C17.4195 195.885 25.4094 212.913 45.4434 216.259C54.0792 217.717 63.1729 217.27 71.944 217.52C74.6128 217.697 77.0944 217.364 80.044 218.306C78.4469 219.471 76.8497 220.636 75.2525 221.801C61.7779 230.801 48.0485 239.894 36.3686 251.416C30.6093 257.003 25.2922 263.006 20.4172 269.426C17.4361 273.125 15.3393 277.656 13.7523 282C9.24638 294.938 13.4856 307.267 24.8106 315.259C30.6943 319.463 37.6393 321.83 44.5583 323.339C56.8409 326.061 68.9779 326.81 81.3439 326.608C111.065 326.397 140.776 323.006 170.205 318.851C200.655 314.322 231.172 309.189 261.528 304.404C263.406 304.004 265.123 303.952 267.469 304.826C265.549 306.688 263.791 308.202 261.871 310.064C247.319 323.22 233.652 337.208 222.893 353.6C217.883 361.227 213.663 369.431 210.047 377.702C206.753 385.277 206.155 393.886 208.292 402.07C211.137 413.754 218.774 421.943 229.418 427.292C238.319 431.834 247.906 433.52 257.723 434.254C274.594 435.29 291.2 433.242 307.593 429.825C352.412 420.307 395.145 404.322 436.218 384.608C466.45 370.032 495.329 353.35 522.039 333.125C531.944 325.436 541.663 317.238 549.706 307.63C555.601 300.836 560.45 293.558 563.972 285.032C572.417 263.125 566.643 242.68 548.431 228.539C541.221 223.086 533.459 219.283 524.865 216.364C512.973 212.342 501.038 209.782 488.553 208.87C474.257 207.756 459.893 207.246 445.691 206.387C443.626 206.277 441.56 206.168 438.033 206.017C440.114 203.806 441.108 202.573 442.357 201.246C453.782 189.818 465.3 178.644 476.028 166.892C486.756 155.141 495.902 142.234 502.328 127.434C505.46 120.208 507.895 112.659 509.217 105.231C512.725 84.848 506.774 67.0713 491.808 52.3166C482.335 43.0664 471.062 36.7917 458.795 31.75C445.482 26.2244 431.551 22.9513 417.551 20.2818C415.392 19.9175 412.885 19.3919 410.029 18.705C411.6 16.6814 412.849 15.3549 414.097 14.0284C427.671 -0.214887 436.271 -16.9711 439.805 -36.4953C442.516 -51.9565 443.417 -67.6207 440.629 -83.0874C438.684 -96.2598 431.599 -106.098 420.3 -113.231C407.513 -121.264 393.462 -125.65 378.427 -125.625C368.543 -125.756 358.497 -125.538 348.571 -124.207C324.104 -120.717 299.476 -116.879 275.478 -112.115C224.999 -102.254 175.389 -89.2408 127.396 -71.0352C100.213 -60.7621 73.6859 -48.7045 49.1664 -32.7555C38.6313 -25.9931 28.5383 -18.8144 20.4013 -9.46103C14.9229 -3.10927 9.28322 3.59102 5.64117 11.0042C-5.98204 32.921 1.34691 53.6631 23.9089 63.8921C30.5313 66.9567 37.8248 69.4854 44.9052 70.6459C59.0658 72.9669 73.3877 74.9394 87.4028 75.2887C112.858 76.0653 138.354 75.38 163.435 75.1368C165.5 75.2462 167.472 75.1007 169.537 75.21C169.725 75.7199 169.818 75.9748 170.005 76.4846Z" fill="#F7D046"/>
</svg>