<svg xmlns="http://www.w3.org/2000/svg" width="268" height="358" viewBox="0 0 268 358" fill="none">
<path d="M121.044 156.118C123.781 155.869 126.517 155.123 129.502 155.123C148.658 154.874 167.813 154.128 186.969 154.377C195.427 154.376 203.636 156.118 212.343 156.864C213.09 157.113 214.085 157.113 214.831 157.362C235.479 163.083 240.206 179.751 225.279 194.677C216.324 203.633 205.875 210.599 195.924 218.559C170.55 238.461 144.926 258.611 119.8 278.762C98.4062 295.678 77.2606 312.844 55.6175 330.009C57.3589 330.258 59.3491 330.258 61.3393 330.258C79.9971 329.014 98.4061 327.024 117.064 326.277C132.239 325.531 147.414 325.78 162.589 326.028C166.072 326.028 171.047 325.531 171.545 330.009C172.042 334.984 166.818 335.73 163.335 336.726C152.141 339.462 140.946 342.696 129.502 344.189C97.9086 348.915 66.0659 352.896 34.2233 356.876C30.2429 357.374 25.765 357.871 21.7847 357.374C10.59 356.13 4.86827 348.418 7.10722 337.223C7.60475 335.233 8.10231 333.243 8.84861 331.501C17.3068 310.107 26.7601 289.708 38.7011 270.304C40.1937 267.816 42.1839 265.328 44.6716 263.338C47.1593 260.85 50.6421 260.353 53.8761 262.094C57.1102 263.836 58.8516 267.07 57.8565 270.553C57.1102 274.284 56.1151 278.264 54.6224 281.747C49.8958 293.439 44.4229 304.883 39.4474 316.326C38.4524 318.814 37.706 321.053 36.4622 324.287C65.0708 298.664 92.4356 272.791 120.796 248.909C149.404 224.779 179.008 202.141 209.358 178.259C206.621 177.512 204.383 176.268 202.144 176.02C192.442 175.273 182.491 174.278 172.54 174.278C152.638 174.278 132.488 175.024 112.586 175.024C107.859 175.273 102.884 175.273 98.1574 174.527C87.4602 172.786 83.7286 163.083 89.6991 154.128C92.1869 150.645 95.1721 147.66 98.6549 145.172C121.044 129.748 143.434 113.827 166.321 98.9006C185.973 85.7157 206.124 73.526 225.777 60.3411C232.991 55.6145 239.708 49.8927 245.678 43.4247C252.147 36.9566 251.4 32.23 243.191 28.4984C236.723 25.5132 229.757 22.5279 222.543 21.7816C205.875 19.5427 188.959 17.5525 172.042 17.5525C118.557 18.2988 65.8171 23.7718 14.0728 34.7177C11.5851 35.2152 9.59491 36.2103 7.35598 35.9615C5.11703 35.7128 2.38056 34.4689 1.13671 32.7275C-0.853467 30.2398 0.390387 27.0058 2.62932 25.2644C4.86826 23.523 7.35597 22.0304 10.0924 21.2841C16.063 19.2939 22.531 17.3037 28.7503 16.0599C77.2606 5.86027 126.268 0.138532 176.023 0.636081C192.442 0.636084 209.109 2.87502 225.528 4.86519C232.991 5.86027 240.206 8.59676 247.171 11.582C250.903 12.8259 253.888 15.3136 257.122 17.5525C268.317 26.757 270.307 38.698 262.595 51.3853C256.127 61.8337 246.425 69.5456 236.474 76.0137C211.348 92.6813 186.222 108.851 161.096 125.519C147.414 134.724 133.732 143.928 119.8 153.381C120.298 154.376 120.547 155.123 121.044 156.118Z" fill="black"/>
</svg>