<svg xmlns="http://www.w3.org/2000/svg" width="63" height="86" viewBox="0 0 63 86" fill="none">
<path d="M25.8316 77.2309C25.6735 74.69 25.5154 72.149 25.1993 69.608C24.4088 64.3673 22.1957 59.9207 18.0854 56.5856C13.8171 53.0918 9.70694 49.4392 4.17396 48.3275C3.38353 48.1687 2.43502 47.6923 1.96077 47.0571C1.32843 46.1042 0.379918 44.8337 0.538003 43.8809C0.696088 42.928 1.96077 41.6575 3.06736 41.4987C17.6112 38.799 24.4088 28.6351 28.361 15.6127C29.3095 12.4365 29.7837 8.94271 30.4161 5.6077C30.8903 4.49603 30.7323 3.38436 31.2065 2.4315C31.6808 1.63746 32.6293 0.684597 33.2616 0.843406C33.894 0.843406 34.6844 1.95508 35.1586 2.74912C35.4748 3.38436 35.3167 4.17841 35.3167 4.97246C35.1586 8.30747 35.0005 11.4837 34.8425 14.8187C34.6844 18.4713 34.3682 22.1239 34.3682 25.7765C34.2101 31.8113 38.0042 35.4639 42.7467 37.8461C45.7503 39.2754 49.0701 40.0694 52.7061 39.593C54.9193 39.2754 57.1325 39.9106 59.5037 40.2282C60.2942 40.387 61.0846 40.5459 61.5588 41.0223C62.1912 41.8163 62.9816 42.928 62.9816 43.7221C62.9816 45.1513 61.5588 45.3102 60.2942 45.1513C58.2391 44.9925 56.342 44.8337 54.2869 44.5161C50.4929 44.0397 47.015 44.9925 43.5371 46.263C41.9563 46.8983 40.3754 48.1687 39.585 49.598C37.8461 52.2978 36.1071 54.9975 35.3167 58.0149C33.4197 65.0026 32.155 72.149 30.5742 79.1366C30.258 80.5659 30.258 81.9952 29.6257 83.2657C29.3095 84.0597 28.2029 85.0126 27.5706 85.0126C26.9382 85.0126 25.8316 83.9009 25.8316 83.1069C25.6735 81.2012 25.8316 79.1366 25.8316 77.2309Z" fill="black"/>
</svg>