<svg width="274" height="364" viewBox="0 0 274 364" fill="none" xmlns="http://www.w3.org/2000/svg">
<path d="M93.5875 177.765C95.0112 175.48 94.6364 173.245 94.2617 171.01C92.3847 160.923 90.5616 151 88.6846 140.913C85.3069 122.43 80.8394 103.943 78.9885 85.1374C77.8773 74.072 77.8019 62.8462 80.3415 51.8462C81.5017 46.5639 83.3705 41.2292 85.6205 35.9501C86.7725 33.3924 88.6871 30.9459 90.546 28.8808C96.2309 23.0125 103.587 23.307 109.018 29.3175C112.983 33.6344 115.474 38.9821 117.583 44.2743C122.018 55.5131 124.926 67.0743 127.179 78.8516C129.004 88.2298 131.21 97.6637 133.579 107.044C136.541 118.768 139.667 130.439 142.847 142.274C144.085 147.127 145.815 151.819 148.91 155.697C150.212 157.445 151.677 159.684 154.076 159.255C156.257 158.716 156.483 156.101 156.925 154.141C158.365 146.407 159.641 138.728 161.245 130.94C162.46 125.276 163.676 119.613 165.491 114.114C166.921 109.65 169.168 105.461 171.251 101.326C172.511 99.0953 174.206 97.0841 176.173 95.3463C181.583 90.2946 187.905 90.2046 193.722 94.6359C200.518 99.8331 203.767 106.927 204.996 115.05C207.136 128.135 206.063 140.828 202.428 153.46C199.895 162.28 196.382 170.88 191.563 178.821C190.358 180.67 189.372 182.629 188.221 184.642C180.062 197.859 175.822 212.505 172.78 227.482C171.121 235.651 172.46 243.556 173.852 251.625C176.106 263.402 180.596 274.26 184.322 285.551C187.185 294.224 190.21 302.843 193.018 311.352C194.098 314.625 194.688 318.06 195.223 321.331C195.596 324.112 194.879 326.888 192.857 329.008C187.663 334.714 181.547 338.728 173.645 338.977C167.759 339.286 163.462 336.712 161.025 331.528C159.834 329.018 159.133 326.345 158.433 323.673C157.301 319.692 156.495 315.602 155.036 311.729C150.712 299.728 146.443 287.89 141.956 275.942C139.414 269.341 136.6 263.012 133.895 256.464C132.379 252.972 129.988 250.676 126.068 249.793C120.023 248.521 114.033 246.869 107.879 245.815C92.521 242.717 80.2283 235.16 69.801 223.359C58.8844 211.174 50.2604 197.688 43.4381 183.064C39.7529 176.296 36.0709 168.438 34.7339 159.987C34.1464 156.007 33.5589 152.028 33.5163 148.05C33.3641 144.289 34.3557 140.695 36.1639 137.377C39.3418 131.61 45.5062 129.394 51.2189 132.409C54.7012 134.163 57.9086 136.734 60.8427 139.576C68.0691 146.627 73.8752 154.873 79.3539 163.227C81.5778 166.667 83.8017 170.106 86.1893 173.492C87.9255 176.004 89.9907 177.863 93.5875 177.765Z" fill="#4CA96D"/>
<path fill-rule="evenodd" clip-rule="evenodd" d="M79.3678 44.8807C78.6632 48.0135 77.9715 51.0893 78.9361 54.0123C79.9066 57.5027 81.9177 59.198 84.6963 59.3698C87.421 59.378 90.4254 56.9348 91.3058 54.1038C92.4627 49.9113 89.0507 42.8715 85.0775 41.2793C82.7374 40.2369 80.1192 41.101 79.7314 43.225C79.6157 43.7784 79.4916 44.3304 79.3678 44.8807ZM116.281 49.6168C116.3 50.0144 116.318 50.3926 116.328 50.7456C116.604 51.2867 116.852 51.7846 117.083 52.2469L117.083 52.247L117.083 52.2471C117.713 53.5097 118.21 54.5056 118.766 55.3848C120.177 57.4597 122.026 58.6641 124.643 58.345C127.423 57.9719 129.062 56.342 130.051 53.8383C131.149 51.1169 130.612 48.3907 129.421 45.8804C128.663 44.1344 127.686 42.8236 125.397 43.0347C124.688 43.0871 123.981 42.5946 123.438 42.048C120.558 39.3692 117.395 40.2316 116.511 44.1525C116.111 46.0346 116.204 47.9886 116.281 49.6168ZM27.9952 141.593C26.5593 138.394 27.1146 135.333 27.6593 132.33C27.8948 131.032 28.1284 129.744 28.1981 128.461C28.4762 126.555 30.0586 125.851 32.0191 126.293C34.6324 127.064 36.1527 128.921 37.29 131.268C38.3733 133.451 39.7299 135.362 41.5774 137.111C44.3495 139.463 44.9337 144.532 43.1255 147.851C40.9884 151.823 36.0268 152.734 32.7131 149.291C31.4825 147.762 30.4948 145.991 29.5071 144.22C29.0133 143.334 28.5194 142.449 27.9952 141.593ZM89.2077 245.15C88.9966 242.861 88.7331 239.863 88.8509 236.921C89.0194 235.232 89.6789 233.381 90.8817 232.077C92.194 230.555 93.2332 229.305 94.0563 227.4C94.8254 225.331 96.6794 224.901 98.4189 226.323C99.6151 227.199 100.756 228.455 101.188 229.764C102.106 232.546 103.024 235.328 103.07 238.216C103.206 241.058 102.83 244.069 102.471 246.949C102.424 247.328 102.377 247.704 102.332 248.078C101.942 250.746 99.8657 252.702 97.4127 252.967C94.7961 253.286 92.7833 252.136 91.3727 250.061C90.7825 249.071 90.3647 248.023 89.849 246.731C89.6541 246.242 89.4452 245.719 89.2077 245.15ZM181.763 211.933L181.763 211.933L181.761 211.932C181.412 211.724 181.07 211.521 180.748 211.312C180.269 207.659 179.456 206.294 176.95 205.851C174.88 205.627 172.915 206.82 171.872 209.16C171.818 209.269 171.776 209.418 171.735 209.568L171.735 209.568L171.735 209.568C171.694 209.718 171.652 209.868 171.597 209.976C170.436 215.804 171.509 221.256 175.528 225.737C177.592 228.14 180.86 228.695 183.37 227.504C186.044 226.259 187.906 223.103 187.643 220.106C187.433 217.271 186.132 214.979 183.74 213.228C183.102 212.729 182.418 212.322 181.763 211.933L181.763 211.933ZM205.117 98.7479C205.192 99.2866 205.289 99.8471 205.388 100.419C205.64 101.874 205.905 103.406 205.861 104.853C205.744 107.796 203.939 110.024 201.376 110.507C198.977 110.936 196.583 109.73 195.228 107.274C194.632 106.019 194.364 104.655 194.096 103.292C193.813 102.437 193.592 101.59 193.373 100.748L193.373 100.748L193.373 100.748L193.373 100.748L193.373 100.748L193.373 100.747L193.373 100.747L193.373 100.747L193.373 100.747L193.373 100.747C193.047 99.497 192.724 98.2588 192.207 97.0199C191.179 94.4557 191.24 92.4396 192.934 90.9734C194.464 89.5612 197.026 89.0784 199.093 90.3924C200.453 91.2139 201.757 92.4166 202.734 93.7274C202.859 94.0006 202.988 94.2859 203.122 94.5819L203.122 94.5825L203.123 94.584L203.124 94.5848C203.685 95.8249 204.33 97.2507 205.117 98.7479ZM80.7437 178.262C81.2493 173.195 75.3778 168.6 70.4686 170.22C68.6146 170.651 67.1402 171.682 67.2433 173.644C67.3955 177.404 67.7654 181.274 68.6261 184.983C69.2709 188.036 71.719 189.406 74.3896 189.25C77.0602 189.095 79.1908 187.303 79.8535 184.362C80.2954 182.402 80.5195 180.332 80.7437 178.262ZM208.058 153.849C208.594 156.575 208.696 159.082 207.544 161.64C205.405 166.156 200.116 167.176 196.639 163.787C193.705 160.945 192.68 157.29 193.564 153.37C194.227 150.429 196.302 149.018 199.244 149.136C199.646 149.106 200.03 149.199 200.387 149.286C200.659 149.352 200.915 149.414 201.15 149.414C201.521 149.415 201.974 149.347 202.431 149.279L202.431 149.279L202.432 149.279C203.319 149.145 204.225 149.009 204.584 149.37C205.785 150.31 206.62 151.615 207.479 152.956C207.669 153.253 207.861 153.552 208.058 153.849ZM126.825 219.116C127.069 219.095 127.325 219.074 127.594 219.054C127.763 218.867 127.947 218.674 128.138 218.476L128.138 218.475C129 217.577 129.985 216.55 130.167 215.301C130.609 213.341 130.725 210.944 130.404 208.872C130.326 208.232 130.087 207.622 129.842 206.997C129.42 205.919 128.981 204.799 129.33 203.419C129.496 202.82 128.465 201.346 127.866 201.181C125.742 200.793 123.454 200.459 121.111 200.507C120.402 200.559 119.419 201.428 119.253 202.027C119.117 202.465 118.977 202.904 118.837 203.344L118.836 203.348C118.068 205.755 117.285 208.207 117.048 210.739C116.822 213.354 121.492 218.708 124.161 219.098C124.955 219.277 125.785 219.206 126.825 219.116L126.825 219.116ZM121.724 159.475C122.914 162.531 122.197 165.308 120.664 167.81C118.417 171.999 113.457 172.365 110.307 168.868C107.7 165.918 107.119 159.759 109.091 156.386C111.173 152.796 116.841 152.377 119.61 155.818C120.533 156.965 121.129 158.22 121.724 159.475ZM130.091 95.1987C130.901 97.6534 130.893 100.378 129.523 102.826C127.934 105.709 124.442 107.225 121.339 106.071C118.291 105.081 116.882 102.461 117.328 98.866C117.497 97.1773 117.502 95.5426 117.507 93.9079L117.507 93.9077C117.515 91.1831 119.047 89.2259 121.881 89.0164C125.26 88.8086 128.795 91.2714 130.091 95.1987ZM177.557 130.707C174.174 132.005 170.584 129.923 170.432 126.163C170.332 123.111 170.887 119.843 171.931 116.958C173.194 113.637 176.082 113.592 179.399 115.945C182.063 117.969 182.273 120.803 181.991 123.8C181.708 127.341 180.175 129.843 177.557 130.707ZM162.468 183.411C160.177 184.167 159.296 186.998 160.322 190.107C161.401 193.925 164.392 195.841 167.501 194.815C170.066 193.788 171.82 190.305 171.011 187.306C169.931 184.033 165.85 182.113 162.468 183.411Z" fill="black"/>
</svg>
