<svg xmlns="http://www.w3.org/2000/svg" width="114" height="182" viewBox="0 0 114 182" fill="none">
<path d="M87.8444 53.3591C93.127 53.7784 97.9903 54.1976 102.854 54.6169C103.944 54.7007 105.034 54.8684 105.956 55.2877C107.801 56.0423 108.723 57.5516 108.891 59.6479C109.059 62.415 108.555 65.0143 107.549 67.5298C106.375 70.5485 105.118 73.4832 103.692 76.3341C100.254 83.3776 96.481 90.2533 92.3723 96.9613C84.2388 110.042 76.1892 123.039 68.3073 136.287C64.534 142.576 61.4315 149.2 57.9098 155.573C54.3881 162.029 50.6987 168.486 47.177 174.942C45.2484 178.548 41.9782 180.309 38.3727 181.399C34.1801 182.656 29.8199 180.141 28.4783 175.948C27.4721 172.762 27.3883 169.492 28.646 166.473C30.91 161.023 33.5093 155.74 36.1087 150.458C36.9472 148.781 38.2888 147.439 39.9658 146.433C42.4813 144.924 43.8229 145.427 44.4937 148.194C44.5776 148.445 44.5776 148.697 44.7453 149.368C45.3322 148.529 45.7515 148.026 46.0869 147.439C51.7049 138.383 56.8198 128.992 61.4315 119.349C68.6427 104.256 76.6923 89.6663 84.7419 74.9925C85.9158 72.8124 87.3413 70.8 88.599 68.6199C88.9345 68.0329 89.2699 67.5298 89.6891 66.7752C86.7543 66.6075 84.0711 66.4398 81.4718 66.2721C80.7171 66.1882 80.2979 66.6075 79.8786 67.2783C78.8724 68.8714 77.8662 70.4646 76.86 72.0578C74.7637 75.5795 71.6613 77.1726 67.5526 76.8372C66.3787 76.7534 65.1209 76.7534 63.947 76.418C60.7607 75.6633 59.1676 72.8124 60.0061 69.6261C60.2576 68.7037 60.6769 67.8652 61.0961 67.0267C69.0619 52.7722 76.9438 38.6015 84.9935 24.4307C87.3413 20.3221 90.0245 16.3811 92.54 12.2724C92.8754 11.6855 93.2108 11.1824 93.6301 10.4277C92.4562 10.3439 91.6177 10.3439 90.6953 10.1762C88.599 9.84077 87.509 8.66686 87.2574 6.82215C87.0897 5.3967 87.5928 4.47434 88.9345 3.88739C89.773 3.55199 90.3599 2.96503 91.0307 2.46193C91.7854 1.87498 92.8754 1.28803 93.8816 1.28803C97.9064 1.03648 101.764 0.868774 105.705 0.868774C107.13 0.868774 108.639 1.12033 110.065 1.45573C113 2.12653 114.341 4.30664 113.503 7.15755C113.083 8.66686 112.413 10.1762 111.49 11.5178C108.22 16.0457 105.369 20.909 102.854 26.0239C98.5772 34.6605 93.9655 43.0455 89.0183 51.2629C88.6829 51.8498 88.3475 52.4368 87.8444 53.3591Z" fill="black"/>
<path d="M25.7112 88.4086C23.1957 88.5763 20.8479 88.744 18.4162 88.8278C14.643 89.0794 10.7859 89.3309 7.0126 89.4986C6.17409 89.5825 5.41944 89.5825 4.58093 89.4986C1.31077 89.1632 -0.53394 86.5639 0.136863 83.3775C0.220714 83.0421 0.304564 82.7067 0.472265 82.4552C4.24553 72.5608 6.92874 62.4149 9.44426 52.1852C12.2952 40.8654 15.2299 29.5456 18.1647 18.3096C18.7517 16.1295 19.4225 13.9494 20.0094 11.7693C20.8479 8.83453 22.5249 6.90598 25.7112 6.57057C29.0653 6.23517 32.3354 5.64822 35.6894 5.39667C50.7825 4.47431 65.8756 2.79731 80.8848 1.03645C84.6581 0.617196 88.5152 0.281794 92.2885 0.0302431C93.6301 -0.0536073 94.9717 0.0302432 96.2294 0.365645C99.4157 1.1203 100.757 4.13891 99.4996 7.07368C99.0803 7.99603 98.4934 8.83453 97.9064 9.67304C96.3971 12.0208 94.8878 14.2848 93.4624 16.6326C89.6052 23.173 85.832 29.7133 81.891 36.1698C77.95 42.6262 73.9252 49.0827 69.9004 55.5392C68.7265 57.3839 67.5526 59.1448 66.3787 60.9056C66.0433 61.4087 65.7079 61.9957 65.2048 62.8342C66.0433 62.8342 66.5464 62.8342 67.0495 62.8342C74.0091 62.918 80.9687 62.918 87.9282 63.0019C88.4313 63.0019 89.0183 63.0857 89.5214 63.1696C92.7077 63.8404 94.3009 66.7752 93.127 69.7938C92.7077 70.8838 91.953 71.89 91.1984 72.8124C87.7605 77.3403 84.2388 81.7844 80.8848 86.3962C79.2916 88.5763 77.8662 91.0079 76.6084 93.4396C69.8165 106.353 63.1085 119.182 56.4843 132.178C49.6086 145.511 42.9006 159.011 36.1087 172.343C35.6056 173.349 35.0186 174.355 34.1801 175.194C32.1677 177.29 29.4845 177.122 27.3882 175.194C25.8789 173.768 25.0404 172.091 24.9566 170.079C24.705 166.306 24.3696 162.448 24.4535 158.591C24.705 144.84 25.2081 131.088 25.4597 117.337C25.6274 108.03 25.6274 98.7222 25.7112 89.4148C25.8789 89.1632 25.7951 88.8278 25.7112 88.4086Z" fill="#EA552B"/>
</svg>