<svg xmlns="http://www.w3.org/2000/svg" width="255" height="275" viewBox="0 0 255 275" fill="none">
<path d="M237.092 255.039C236.237 253.858 235.623 253.679 235.398 253.08C226.073 226.113 212.379 201.336 199.478 176.125C186.142 150.12 172.806 124.116 156.492 99.6412C147.077 86.2376 137.467 73.0438 125.12 62.3829C121.359 59.2879 117.194 56.2084 112.461 54.1625C103.19 49.8607 94.4209 53.4329 90.5387 63.0929C88.8662 67.002 88.0174 71.2844 87.7825 75.7459C87.2359 82.6478 87.4976 89.519 87.3551 96.4055C87.2839 99.8488 87.2127 103.292 86.7373 106.751C85.5767 113.474 81.6272 116.053 75.114 115.087C68.6009 114.12 63.0135 110.893 58.0093 107.035C50.9072 101.234 45.7799 94.1438 41.2357 86.4239C31.2774 69.398 23.5036 51.2769 18.5284 32.2398C16.4093 24.4274 14.0959 16.8249 11.7824 9.22234C11.0761 6.61823 9.56137 4.04491 7.86764 2.08556C7.01309 0.903796 4.15299 0.203196 3.16562 0.847964C1.77407 1.50813 1.05807 3.96404 0.311281 5.61157C0.132281 6.22555 0.56726 7.01852 0.792446 7.6171C3.69483 20.0545 6.61261 32.8961 10.3388 45.7068C16.4246 67.3327 25.5032 87.8327 38.7566 106.352C45.1581 115.013 52.9203 122.206 62.9845 126.073C67.5076 127.924 72.6138 129.146 77.4794 129.366C88.8274 129.743 97.4731 122.937 99.8868 111.917C101.094 106.406 101.072 100.538 101.261 94.8639C101.808 87.9619 101.95 81.0754 102.302 74.3832C102.435 72.5567 103.571 70.4896 104.108 68.6477C108.15 68.4937 110.278 71.246 112.78 73.1746C125.772 84.8229 136.416 98.5845 145.294 113.83C163.696 145.308 181.499 177.012 199.497 208.506C206.441 220.789 213.58 232.863 221.169 246.134C219.117 245.402 217.889 245.044 216.451 244.492C211.299 242.057 206.341 239.413 200.994 237.188C198.733 236.262 196.277 235.546 193.642 235.444C190.797 235.148 188.224 236.662 187.927 239.507C187.6 241.543 188.501 243.938 189.581 245.718C190.66 247.498 192.518 248.439 194.375 249.381C208.635 257.135 222.701 265.1 237.155 272.645C244.585 276.409 250.959 273.738 253.076 265.562C254.329 261.264 254.953 256.383 254.379 251.952C253.15 235.606 251.306 219.08 249.268 202.765C248.95 199.741 247.809 196.344 246.488 193.561C244.748 190.389 241.515 190.512 240.635 193.986C239.398 198.688 238.176 203.794 238.166 208.854C237.998 220.397 238.43 231.714 238.456 243.047C238.37 246.086 238.478 248.915 238.391 251.954C237.808 252.584 237.434 253.407 237.092 255.039Z" fill="black"/>
</svg>