<svg width="851" height="838" viewBox="0 0 851 838" fill="none" xmlns="http://www.w3.org/2000/svg">
<path d="M439.934 537.941C437.799 540.268 436.475 541.877 435.151 543.486C423.796 560.07 412.207 576.717 400.852 593.301C397.581 597.939 394.544 602.514 391.632 607.558C389.919 610.524 388.566 613.896 387.446 617.206C385.053 625.119 387.664 630.187 395.532 633.345C398.311 634.356 401.027 635.133 403.914 635.613C419.662 639.168 435.502 641.193 451.559 642.157C453.852 642.294 456.146 642.432 458.971 642.678C458.411 644.333 458.023 645.691 457.4 647.111C436.989 684.178 420.012 722.832 401.614 760.863C400.82 762.581 400.027 764.298 399.296 766.249C398.582 769.199 399.271 771.773 401.77 773.611C404.035 775.512 406.859 775.758 409.541 774.538C411.522 773.506 413.377 772.006 415.232 770.506C418.474 767.631 421.887 764.459 425.066 761.35C426.687 759.913 428.309 758.475 429.696 757.101C436.973 749.634 444.251 742.167 451.466 734.465C456.141 729.451 460.987 724.14 465.006 718.55C485.974 690.111 506.708 661.735 525.24 631.692C534.272 616.733 544.85 602.865 554.835 588.654C555.691 587.171 556.844 585.859 557.701 584.375C560.082 579.223 557.299 574.452 551.479 574.256C549.715 574.227 548.015 574.432 546.377 574.871C535.318 577.584 524.258 580.296 513.261 583.243C511.389 583.744 509.752 584.183 506.71 584.998C510.336 577.005 513.214 569.964 516.623 563.033C520.997 554.087 525.433 545.375 529.807 536.429C530.772 534.415 532.347 533.742 534.219 533.24C569.754 525.474 603.02 512.047 634.689 494.533C667.465 476.472 693.351 450.478 714.457 419.745C727.073 401.318 732.073 380.669 731.469 358.763C731.306 352.537 729.91 346.391 729.044 340.354C724.73 307.405 710.622 279.086 688.935 254.303C672.045 235.256 652.974 219.301 631.877 205.143C600.911 184.1 567.5 167.975 532.549 154.52C474.353 131.996 414.574 116.667 352.327 111.78C319.26 109.105 286.541 109.596 253.905 115.081C214.765 121.556 177.784 134.224 144.248 155.999C110.945 177.712 89.4803 208.039 79.4308 246.342C73.4036 268.771 71.2622 291.663 73.9423 314.768C77.9437 346.548 90.9276 374.415 111.787 398.918C126.709 416.236 143.937 430.929 162.084 444.373C236.407 499.941 320.061 530.439 412.705 536.46C419.82 536.81 426.998 537.394 434.114 537.745C435.284 537.431 436.579 537.586 439.934 537.941Z" fill="#F7D046"/>
<path d="M492.984 93.902C495.78 95.9115 497.685 97.4072 499.762 98.6061C514.595 107.17 529.491 115.968 544.558 124.47C568.463 137.875 592.648 150.454 616.381 164.156C644.798 180.365 670.458 200.322 692.956 224.387C715.328 247.983 732.415 275.253 742.345 306.697C749.91 330.249 753.434 354.633 751.326 379.523C750.788 385.936 749.313 392.6 748.01 398.968C747.204 403.447 746.335 407.692 745.763 412.109C745.237 415.761 746.8 417.849 749.282 418.689C751.998 419.466 754.384 418.074 755.971 414.64C756.593 413.219 757.216 411.799 757.542 410.207C765.178 389.102 766.4 367.459 764.267 345.461C759.103 293.43 736.332 249.628 700.743 212.269C679.808 190.294 656.288 171.77 630.586 156.338C597.702 136.561 563.276 119.454 528.571 103.175C520.578 99.5486 512.367 96.9839 504.094 94.1852C501.019 93.003 497.601 92.4142 492.984 93.902Z" fill="#F7D046"/>
<path d="M39.0344 324.874C46.3527 351.251 59.2069 374.89 75.0859 396.715C94.9974 424.231 118.665 447.982 146.665 467.313C158.017 475.054 169.775 482.436 181.237 489.646C183.08 490.908 185.39 492.044 187.341 492.775C191.01 494.3 193.647 493.844 195.079 491.705C196.45 489.332 195.76 486.758 192.605 484.343C191.293 483.19 189.81 482.334 188.327 481.477C175.724 472.817 162.888 464.219 150.691 455.2C115.287 428.826 86.9435 396.046 66.5965 356.61C54.507 333.016 48.4381 307.559 47.174 281.316C46.5168 266.696 49.9793 252.478 53.5045 238.493C57.5726 221.855 63.592 205.948 71.8594 190.944C73.8521 187.15 75.6108 183.418 77.3068 179.453C78.1005 177.736 78.5975 175.847 79.0945 173.959C79.5289 171.836 80.4312 169.588 78.0579 168.218C75.9812 167.019 74.1262 168.519 72.9731 169.831C69.8565 173.174 66.9111 176.22 64.3878 179.905C50.898 198.817 42.2635 219.939 37.7655 242.46C34.7251 257.317 31.2793 272.535 33.1232 287.839C34.9167 300.148 37.1782 312.332 39.0344 324.874Z" fill="#F7D046"/>
</svg>
