<svg xmlns="http://www.w3.org/2000/svg" width="261" height="268" viewBox="0 0 261 268" fill="none">
<path d="M99.3104 166.694C98.0184 166.768 96.9967 166.986 95.8959 167.092C78.1053 169.253 60.6705 173.344 43.2226 176.942C24.753 180.757 6.36254 184.684 -12.3707 187.175C-16.2004 187.698 -20.1883 187.998 -24.1433 188.106C-25.7385 188.226 -27.4589 187.93 -29.0343 187.365C-31.7236 186.411 -32.5871 184 -30.9788 181.521C-30.1417 180.09 -28.9552 178.916 -27.6896 177.855C-18.1715 169.452 -8.65326 161.05 1.13518 152.792C13.0857 142.84 25.1152 132.999 37.4151 123.303C49.1546 114.003 60.7821 104.782 73.4708 96.826C73.695 96.6676 74.0311 96.4302 74.4002 96.0016C74.0575 94.5652 73.7147 93.1288 73.2599 91.7716C64.862 65.1408 57.822 38.0544 51.5005 10.7962C48.1848 -3.6467 45.4755 -18.1823 42.6542 -32.6387C42.2521 -34.8724 41.9621 -37.1853 41.8632 -39.4653C41.8236 -40.948 42.2455 -42.2531 43.8274 -42.8671C45.4885 -43.3691 46.6486 -42.678 47.5187 -41.4463C49.3051 -38.6797 51.0914 -35.9132 52.6537 -32.9883C59.4694 -20.0109 66.0611 -6.87512 72.8769 6.10234C79.2972 18.5199 85.7966 31.0495 92.329 43.3879C96.3367 50.9636 100.457 58.4601 104.464 66.0357C106.705 70.1595 106.943 70.4954 110.99 68.1399C119.612 63.2244 128.346 58.2297 136.763 52.787C155.997 40.5426 174.915 27.8502 194.149 15.6058C203.878 9.40443 213.812 3.73012 223.699 -2.24732C225.459 -3.3227 227.456 -4.0622 229.5 -4.49857C233.283 -5.32496 235.9 -2.80942 234.859 0.947589C234.127 3.47865 232.98 6.1352 231.325 8.31105C226.711 15.0953 221.827 21.7349 216.864 28.2624C202.151 47.3836 185.804 65.1418 168.871 82.3074C166.722 84.4968 164.652 86.7981 162.582 89.0994C161.844 89.9566 161.218 90.7347 160.559 91.7039C157.52 96.2004 157.988 98.0518 162.583 100.513C164.283 101.494 166.129 102.204 167.941 103.106C186.438 111.693 205.454 118.401 224.84 124.681C230.904 126.608 236.969 128.534 242.888 130.731C246.421 131.928 249.809 133.395 253.164 135.054C255.247 136.1 257.073 137.496 258.563 139.129C261.384 142.172 260.995 146.139 257.554 148.402C255.762 149.668 253.731 150.599 251.576 151.115C248.096 151.895 244.457 152.451 240.851 152.816C215.803 155.403 190.722 155.329 165.628 151.906C160.546 151.132 155.431 150.549 150.316 149.966C148.787 149.704 147.304 149.744 145.741 149.673C143.302 149.55 141.734 150.658 140.956 152.886C140.712 153.729 140.277 154.54 140.033 155.384C129.632 187.741 117.003 219.323 105.105 251.226C103.681 254.918 102.449 258.642 101.025 262.333C100.524 263.527 100.023 264.72 99.2518 265.768C98.5597 266.928 97.36 267.608 95.8307 267.345C94.4136 267.004 93.4775 266.154 93.2468 264.639C93.0359 262.438 92.7129 260.316 92.6931 258.148C93.1544 246.912 93.3916 235.834 94.2353 224.663C95.303 210.481 96.8321 196.476 98.1701 182.439C98.4799 178.359 98.7897 174.28 98.9874 170.28C99.4554 169.278 99.2708 168.065 99.3104 166.694Z" fill="#EE8DB9"/>
</svg>