<svg xmlns="http://www.w3.org/2000/svg" width="350" height="337" viewBox="0 0 350 337" fill="none">
<path d="M169.534 270.668C167.87 270.762 166.554 271.043 165.136 271.18C142.224 273.963 119.77 279.232 97.2998 283.865C73.5133 288.778 49.8287 293.836 25.7026 297.044C20.7704 297.718 15.6345 298.104 10.541 298.243C8.48668 298.397 6.27102 298.017 4.24211 297.288C0.778541 296.06 -0.333546 292.955 1.73777 289.762C2.81588 287.92 4.3439 286.408 5.97381 285.04C18.232 274.219 30.4902 263.398 43.0965 252.764C58.4872 239.946 73.9797 227.272 89.8203 214.785C104.939 202.808 119.914 190.933 136.256 180.686C136.544 180.482 136.977 180.176 137.453 179.624C137.011 177.774 136.57 175.924 135.984 174.177C125.168 139.88 116.102 104.996 107.961 69.8906C103.69 51.29 100.201 32.57 96.5677 13.952C96.0498 11.0753 95.6763 8.09659 95.5489 5.16017C95.498 3.25062 96.0413 1.56982 98.0787 0.7791C100.218 0.132587 101.712 1.02267 102.833 2.60896C105.133 6.1719 107.434 9.73485 109.446 13.5017C118.224 30.215 126.713 47.1322 135.491 63.8455C143.759 79.8378 152.13 95.9742 160.542 111.865C165.704 121.621 171.01 131.276 176.171 141.032C179.057 146.343 179.363 146.776 184.575 143.742C195.679 137.411 206.927 130.979 217.768 123.969C242.539 108.2 266.902 91.854 291.674 76.0848C304.204 68.0982 316.997 60.7904 329.73 53.0922C331.997 51.7072 334.569 50.7549 337.201 50.1929C342.073 49.1286 345.444 52.3683 344.102 57.2068C343.16 60.4665 341.683 63.8878 339.552 66.69C333.61 75.4274 327.32 83.9782 320.927 92.3848C301.98 117.01 280.927 139.881 259.118 161.988C256.351 164.807 253.685 167.771 251.02 170.735C250.069 171.839 249.263 172.841 248.414 174.089C244.5 179.88 245.103 182.265 251.02 185.435C253.21 186.698 255.587 187.613 257.922 188.774C281.742 199.833 306.233 208.472 331.2 216.56C339.01 219.041 346.82 221.522 354.443 224.352C358.993 225.893 363.357 227.783 367.678 229.918C370.36 231.266 372.712 233.064 374.63 235.167C378.264 239.085 377.763 244.195 373.332 247.109C371.023 248.74 368.408 249.939 365.632 250.603C361.15 251.607 356.464 252.324 351.82 252.794C319.562 256.126 287.261 256.03 254.942 251.622C248.397 250.625 241.81 249.875 235.222 249.124C233.253 248.786 231.343 248.838 229.331 248.746C226.19 248.587 224.169 250.014 223.168 252.884C222.854 253.97 222.293 255.015 221.979 256.101C208.584 297.773 192.319 338.446 176.996 379.534C175.163 384.288 173.575 389.084 171.742 393.838C171.097 395.375 170.451 396.912 169.458 398.262C168.567 399.756 167.022 400.631 165.052 400.293C163.227 399.853 162.022 398.759 161.725 396.807C161.453 393.973 161.037 391.24 161.011 388.448C161.606 373.977 161.911 359.71 162.998 345.324C164.373 327.059 166.342 309.023 168.065 290.944C168.464 285.69 168.863 280.437 169.118 275.285C169.72 273.994 169.483 272.433 169.534 270.668Z" fill="#EE8DB9"/>
</svg>