<svg width="506" height="474" viewBox="0 0 506 474" fill="none" xmlns="http://www.w3.org/2000/svg">
<path d="M281.926 443.292C261.585 439.34 241.378 435.414 221.226 431.222C206.413 428.141 191.738 424.392 177.558 418.936C152.634 409.575 130.283 395.875 110.772 377.893C91.022 359.723 74.6907 338.504 61.6115 315.038C48.9272 292.35 42.4589 267.893 39.8768 242.155C37.1943 215.561 39.8277 189.516 46.3088 163.714C52.4845 139.38 64.1213 117.575 78.1826 96.8309C86.8639 83.8784 98.4096 73.8887 111.574 65.4887C140.587 47.1589 172.429 39.9989 206.397 41.3565C222.139 41.9857 238.041 42.5092 253.805 43.6999C269.274 44.9686 284.604 46.9046 299.962 48.707C309.07 49.7663 318.151 50.9591 327.203 52.2853C351.797 55.8699 376.109 61.4841 400.037 68.2716C416.335 72.9151 432.089 78.8377 447.921 85.0549C454.478 87.6718 461.251 89.9162 467.863 92.2662C469.036 92.6495 470.048 93.1385 471.194 93.6553C475.058 95.1554 477.228 98.1128 478.052 102.183C479.389 109.144 479.763 116.044 478.881 122.961C477.534 134.794 476.481 146.549 473.904 158.265C473.404 160.667 473.333 163.019 472.967 165.449C472.068 171.11 469.077 174.108 463.35 174.866C457.89 175.679 452.385 175.369 447.047 174.259C437.172 172.204 427.218 169.855 417.453 167.267C390.4 160.108 362.909 154.389 335.278 149.338C319.981 146.573 304.845 143.703 289.542 141.634C266.817 138.438 244.08 136.632 221.1 138.674C210.052 139.578 199.316 141.661 188.914 145.484C176.098 150.197 165.481 157.734 156.871 168.335C148.017 179.441 141.532 191.876 137.204 205.317C134.138 214.703 131.766 224.095 131.102 233.982C130.764 239.62 130.961 245.369 132.308 250.94C139.751 280.752 153.882 306.525 177.736 326.385C188.309 335.128 200.315 341.664 212.783 347.32C235.455 357.467 258.344 367.24 281.833 375.468C312.468 386.157 343.742 393.776 375.953 397.553C385.328 398.668 394.542 399.888 403.834 401.404C407.732 402.075 411.413 403.12 415.228 404.192C416.668 404.63 418.08 405.203 419.437 406.042C421.884 407.665 424.226 409.126 427.54 409.259C430.72 409.364 432.678 411.999 433.135 415.157C434.333 422.785 435.236 430.491 432.53 438.143C431.464 441.263 431.064 444.521 430.398 447.724C430.12 449.059 429.815 450.527 429.537 451.861C428.16 457.144 424.953 460.514 419.415 461.033C414.305 461.502 409.195 461.97 404.119 461.61C393.137 460.857 382.211 459.838 371.234 458.39C360.258 456.942 349.203 455.199 338.338 453.217C319.677 449.892 301.043 446.434 282.41 442.975C281.954 443.159 281.926 443.292 281.926 443.292Z" fill="#F7D046"/>
<path d="M427.448 380.417C427.876 380.367 428.143 380.422 428.438 380.344C433.598 380.304 436.279 382.811 436.881 387.948C437.628 395.065 437.013 402.038 436.237 409.117C435.837 412.375 435.304 415.606 434.905 418.864C434.251 424.019 431.154 426.855 426.356 428.503C418.1 431.38 409.676 431.716 401.158 430.501C391.304 429.008 381.373 427.221 371.442 425.433C359.187 423.441 346.959 421.315 334.676 419.456C321.697 417.591 308.769 416.155 295.819 414.157C267.221 409.74 239.473 402.575 213.264 390.023C183.779 375.814 157.618 357.005 136.047 332.191C105.889 297.793 92.032 257.318 95.032 211.439C96.6595 187.552 102.825 164.608 112.804 142.737C116.694 134.078 122.207 126.314 129.156 119.684C151.78 97.9369 161.459 94.242 188.719 88.3566C207.679 84.2252 227.012 83.6523 246.233 83.6132C265.322 83.5463 284.044 85.9094 302.756 89.6626C324.003 93.9432 345.222 98.3573 366.33 103.305C393.95 109.747 420.992 118.296 447.351 128.792C454.308 131.492 461.181 134.592 468.055 137.693C469.573 138.426 471.197 139.321 472.526 140.294C476.408 143.051 478.25 146.914 477.678 151.669C477.185 156.718 476.853 161.661 475.692 166.571C473.643 175.751 471.355 184.743 468.772 193.813C467.317 198.801 465.461 203.705 463.606 208.61C461.367 214.688 457.525 217.091 451.197 216.053C446.871 215.432 442.601 214.544 438.386 213.388C425.874 209.95 413.334 206.646 400.934 202.674C393.76 200.346 386.887 197.246 379.986 194.278C371.433 190.55 362.714 187.622 353.639 185.735C339.12 182.575 324.518 179.816 310.077 176.951C303.404 175.563 296.615 175.404 289.931 175.406C281.191 175.258 272.533 174.711 263.792 174.563C253.928 174.46 244.142 174.652 234.412 174.577C227.167 174.602 219.871 174.198 212.571 174.489C199.254 174.922 187.879 180.074 178.185 189.196C172.287 194.791 168.814 201.448 167.471 209.244C165.989 217.707 166.058 226.075 168.184 234.593C169.949 241.504 171.447 248.359 172.945 255.214C174.598 262.659 177.592 269.686 181.364 276.319C188.985 289.878 198.086 302.352 208.503 313.848C218.576 324.993 231.056 332.602 244.697 338.642C263.054 346.776 282.127 352.136 301.856 355.684C325.483 359.902 349.199 363.026 373.159 365.643C385.954 367.051 398.665 368.86 411.404 370.536C418.054 371.362 423.46 374.157 426.942 380.173C427.104 380.067 427.237 380.095 427.448 380.417Z" fill="#EE8DB9"/>
<path d="M364.675 211.702C344.924 207.593 325.256 203.084 305.393 199.509C284.891 195.662 264.217 193.311 243.344 192.588C235.888 192.29 228.481 192.421 221.075 192.551C214.497 192.714 208.203 194.189 202.032 197.082C197.551 199.213 193.999 202.234 191.321 206.41C185.474 215.775 182.697 225.779 183.573 236.961C185.001 252.852 190.961 267.04 200.083 280.076C211.031 295.719 225.646 307.113 242.369 315.743C255.577 322.529 269.551 326.967 283.881 330.366C312.835 337.085 341.961 342.309 371.338 346.331C381.886 347.829 392.484 349.755 403.033 351.253C407.626 351.93 412.38 352.502 417.028 352.912C420.315 353.178 423.523 353.149 426.837 353.281C431.513 353.558 434.138 356.332 434.262 361.091C434.251 362.481 434.241 363.872 434.069 365.367C433.886 368.253 433.837 371.167 434.483 374.086C435.357 378.584 434.947 383.232 433.87 387.742C433.009 391.879 430.13 394.343 425.954 395.006C423.519 395.335 421.006 395.369 418.492 395.403C400.766 395.614 383.151 395.291 365.519 393.712C353.203 392.681 340.864 391.089 328.525 389.497C312.422 387.261 296.43 384.491 280.687 380.52C252.912 373.489 227.553 361.531 205.29 343.395C185.151 327.092 168.053 308.22 156.175 285.004C153.332 279.261 150.65 273.413 148.586 267.275C145.553 258.429 142.814 249.506 140.398 240.371C136.969 227.405 136.27 214.033 137.629 200.81C139.496 180.454 150.412 165.46 167.629 154.979C174.64 150.729 182.279 148.141 190.152 146.437C203.568 143.52 217.073 142.848 230.841 142.928C269.629 143.2 307.791 148.493 345.443 157.578C362.681 161.721 379.669 167.065 396.796 171.742C408.535 174.88 420.462 177.779 432.257 180.65C439.274 182.388 446.403 183.592 453.315 185.169C454.916 185.503 456.518 185.836 458.064 186.436C463.263 188.213 465.722 191.788 465.012 197.21C464.069 205.089 462.859 212.912 461.488 220.842C460.011 228.61 455.202 231.647 447.329 230.009C440.656 228.621 434.172 226.994 427.527 225.472C406.524 220.686 385.628 216.06 364.625 211.274C364.703 211.568 364.703 211.568 364.675 211.702Z" fill="#EA552B"/>
</svg>
