<svg xmlns="http://www.w3.org/2000/svg" width="199" height="139" viewBox="0 0 199 139" fill="none">
<path d="M111.154 20.0645C111.973 18.7208 112.759 17.4987 113.483 16.2601C117.095 9.86895 120.646 3.46139 124.775 -2.66094C132.263 -13.7442 140.358 -24.4044 148.559 -34.971C157.653 -46.6663 166.623 -58.3943 175.655 -70.106C177.081 -72.0034 178.657 -73.7302 180.249 -75.5177C180.827 -76.2094 181.572 -76.7912 182.346 -77.2351C183.662 -77.9897 184.892 -77.2042 184.623 -75.7132C184.42 -74.4652 184.094 -73.25 183.524 -72.1003C181.224 -67.1812 178.924 -62.2621 176.456 -57.4528C169.795 -44.3245 163.073 -31.2124 156.99 -17.7988C153.432 -9.89551 150.057 -1.9431 146.682 6.00931C143.689 13.0223 140.896 20.0236 138.026 27.0694C137.611 28.1303 137.257 29.2076 136.76 30.5724C137.469 30.3715 137.823 30.2711 138.194 30.1099C139.709 29.3437 141.285 28.5938 142.71 27.6733C157.852 18.5757 174.05 11.6495 190.736 5.83112C191.738 5.51347 192.74 5.19584 193.787 4.95532C194.341 4.84325 194.923 4.86908 195.429 4.93929C196.422 5.14048 196.977 6.00531 196.716 6.97748C196.521 7.70661 196.171 8.52451 195.625 9.09465C194.297 10.6275 192.97 12.1604 191.447 13.4455C186.413 17.5671 181.379 21.6887 176.256 25.656C168.571 31.607 160.781 37.4645 153.035 43.3992C151.56 44.502 150.176 45.7591 148.836 47.0933C146.889 48.9813 146.841 50.1404 148.727 52.1437C150.161 53.635 151.689 55.0212 153.31 56.3023C159.16 60.8654 165.417 64.8864 171.707 68.7859C187.688 78.7988 203.338 89.3094 218.362 100.694C219.287 101.398 220.289 102.057 221.214 102.761C221.593 103.057 221.911 103.338 222.196 103.74C222.795 104.682 222.208 105.892 221.072 105.979C220.673 106.002 220.229 105.948 219.862 105.85C215.752 104.814 211.626 103.838 207.565 102.62C197.292 99.4115 187.198 95.5346 177.214 91.4918C162.549 85.6088 148.186 79.0901 134.108 71.9966C132.206 71.031 130.271 70.1869 128.352 69.2821C127.941 69.1067 127.53 68.9314 127.024 68.8612C125.436 68.4355 124.666 68.62 123.815 70.0852C122.695 72.0644 121.637 74.0601 120.7 76.0885C116.592 84.8214 112.773 93.6968 109.244 102.715C106.96 108.55 104.843 114.495 102.498 120.314C100.678 124.906 98.6301 129.372 96.6881 133.931C96.2281 134.915 95.5847 135.85 94.9576 136.724C94.3142 137.658 93.3979 138.39 92.1148 138.046C90.9702 137.674 90.526 136.643 90.4973 135.528C90.387 133.741 90.2929 131.892 90.5044 130.125C90.9842 125.89 91.4803 121.595 92.3267 117.459C94.3858 107.33 96.5507 97.295 98.9153 87.2484C100.344 81.184 102.139 75.2178 103.812 69.2188C103.958 68.672 104.121 68.0643 104.333 67.2744C103.384 67.1504 102.589 66.9376 101.763 66.8462C92.5734 65.947 83.421 65.6437 74.1912 65.3848C58.4933 64.8254 42.7139 64.5699 26.9466 63.5361C20.2503 63.1094 13.5418 62.4841 6.81693 61.9195C5.66829 61.8071 4.4911 61.5568 3.35874 61.3836C3.05324 61.3018 2.73146 61.2806 2.50334 61.1544C1.23652 60.7498 0.662102 60.2052 0.751551 59.3825C0.845023 58.3005 1.64737 57.9945 2.49454 57.7656C4.38845 57.2963 6.20499 56.8713 8.08262 56.4627C25.8611 52.4347 43.8107 49.2342 61.687 45.8186C70.0407 44.2147 78.3699 42.2134 86.6665 40.3337C87.7132 40.0932 88.6541 39.7592 89.933 39.3855C89.5784 38.5091 89.3461 37.6653 88.9427 36.9711C86.7669 32.8715 84.7458 28.683 82.2604 24.7609C77.2897 16.9167 72.1479 9.22198 66.9451 1.51092C60.6177 -7.86905 54.4451 -17.3378 49.1236 -27.2948C47.9461 -29.4989 46.8622 -31.8082 45.8394 -34.101C45.5419 -34.7017 45.3381 -35.4076 45.1344 -36.1134C44.8735 -37.095 45.1462 -37.8685 45.8427 -38.268C46.478 -38.6839 47.2886 -38.5318 48.03 -37.8773C48.3029 -37.6739 48.5433 -37.349 48.8163 -37.1457C52.2913 -33.7398 55.6116 -30.2452 59.1803 -26.9446C69.7967 -17.1968 80.4743 -7.43273 90.6998 2.79637C95.6089 7.69353 100.909 12.1093 106.661 16.0601C107.541 16.6867 108.266 17.4019 109.052 18.1336C109.749 18.711 110.368 19.3328 111.154 20.0645Z" fill="#EA552B"/>
</svg>