<svg xmlns="http://www.w3.org/2000/svg" width="858" height="928" viewBox="0 0 858 928" fill="none">
<path d="M440.004 261.31C446.608 257.238 453.138 253.735 459.742 249.662C506.215 221.476 553.856 195.466 604.853 177.126C620.045 171.553 635.661 167.192 651.451 163.722C661.574 161.549 672.12 160.589 682.447 161.338C712.608 163.19 727.803 186.858 716.093 214.883C711.064 226.975 703.26 238.131 696.595 249.433C694.695 252.953 692.298 255.829 691.143 260.313C693.889 259.218 696.635 258.124 699.382 257.03C721.499 247.135 743.938 236.993 767.821 231.379C779.478 228.535 791.31 226.582 803.317 225.521C810.372 224.691 817.777 225.643 824.539 227.092C844.503 231.686 856.737 246.867 857.839 267.564C858.478 278.358 855.947 289.034 852.35 298.994C846.019 316.709 837.307 332.67 827.208 348.163C803.283 385.619 775.343 420.531 746.658 454.479C716.687 489.42 685.898 523.966 655.679 558.585C653.678 560.644 652.245 562.776 651.484 566.442C655.37 565.494 658.686 564.473 662.572 563.525C690.808 555.576 719.395 549.408 748.71 548.836C762.352 548.563 776.096 549.752 789.445 551.758C801.655 553.618 813.031 559.713 821.689 568.933C834.216 581.835 838.504 598.02 836.802 615.751C835.467 630.634 829.97 644.114 823.086 657.125C810.968 679.307 795.157 698.698 777.783 716.73C730.061 765.89 675.812 807.263 618.162 843.566C575.648 870.234 531.543 893.514 484.679 911.228C467.062 917.647 448.948 923.424 430.383 925.959C417.09 928.013 404.018 928.358 390.42 926.031C355.967 919.284 334.68 895.701 331.276 861.39C330.113 847.923 331.476 835.07 334.622 821.867C338.996 803.611 345.254 786.466 354.039 769.935C364.008 750.951 374.794 732.362 385.011 713.699C386.517 710.998 388.022 708.296 390.638 703.711C386.183 704.585 383.831 704.862 381.158 705.387C357.597 710.753 334.283 716.44 310.868 720.667C287.452 724.893 263.834 726.199 239.983 722.552C228.343 720.766 216.849 717.84 206.393 713.6C177.799 701.817 160.031 680.134 153.266 649.444C149.096 630.089 150.126 610.824 153.508 591.283C157.109 570.032 164.055 549.791 171.819 529.944C173.076 526.921 174.407 523.328 175.81 519.166C171.998 519.544 169.325 520.069 166.652 520.594C137.817 526.44 109.76 523.99 82.2313 512.922C60.5008 504.048 39.9544 492.72 22.5939 476.88C7.46703 463.933 0.652522 447.133 0.616492 427.152C0.625299 404.571 6.25696 383.292 18.256 364.28C25.9584 351.663 34.2303 339.12 43.8164 327.614C67.7084 299.419 92.1701 271.297 117.303 244.709C169.965 188.656 225.927 136.213 287.174 89.95C321.816 63.7163 358.194 39.7327 397.901 21.3882C414.847 13.4345 431.968 6.37177 450.285 3.5161C462.687 1.63676 475.658 -0.169316 487.941 1.12078C524.937 3.85197 545.361 29.6398 540.351 66.343C538.96 77.1656 536.355 88.4113 532.189 98.298C523.856 118.071 514.953 137.772 504.239 155.791C484.961 188.633 463.799 220.364 443.528 251.92C442.023 254.621 440.269 257.002 438.763 259.703C439.26 260.346 439.508 260.667 440.004 261.31Z" fill="#F7D046"/>
</svg>