<svg xmlns="http://www.w3.org/2000/svg" width="610" height="577" viewBox="0 0 610 577" fill="none">
<path d="M176.984 248.807C173.004 252.136 169.402 255.539 165.422 258.868C137.716 282.395 111.144 307.123 88.7285 335.602C81.9809 344.063 75.9133 353.048 70.3739 362.333C66.856 368.297 64.0178 374.785 62.3103 381.495C57.1102 401.022 68.9144 415.666 89.17 414.16C97.9049 413.525 106.632 410.931 115.212 409.092C117.847 408.63 120.178 407.718 123.267 407.932C121.992 409.443 120.717 410.955 119.443 412.466C108.49 424.407 97.3121 436.5 88.7019 450.466C84.4338 457.26 80.6941 464.354 77.4827 471.748C75.4649 476.048 74.5039 480.948 73.9937 485.544C72.6884 499.182 79.7338 510.153 92.6324 515.227C99.3459 517.913 106.654 518.564 113.734 518.387C126.311 518.115 138.279 515.962 150.244 512.829C179.065 505.567 207.121 495.22 234.723 484.196C263.226 472.566 291.652 460.334 320.004 448.479C321.733 447.644 323.388 447.186 325.875 447.478C324.452 449.743 323.104 451.631 321.681 453.896C310.669 470.131 300.714 486.964 294.154 505.442C291.098 514.04 288.946 523.011 287.398 531.905C285.997 540.044 287.459 548.55 291.479 555.992C297.017 566.667 306.379 572.809 317.988 575.477C327.713 577.776 337.427 577.138 347.138 575.52C363.772 572.521 379.417 566.588 394.53 559.376C435.807 539.49 473.523 513.816 508.741 484.913C534.648 463.577 558.74 440.515 579.884 414.527C587.681 404.706 595.175 394.435 600.707 383.192C604.82 375.192 607.803 366.971 609.2 357.852C612.202 334.567 601.739 316.077 580.69 306.665C572.392 303.08 563.949 301.228 554.907 300.433C542.4 299.35 530.2 299.696 517.855 301.776C503.703 304.088 489.629 307.002 475.629 309.539C473.596 309.924 471.564 310.308 468.102 310.998C469.599 308.357 470.271 306.923 471.169 305.338C479.554 291.523 488.09 277.934 495.721 263.971C503.352 250.009 509.173 235.3 511.901 219.397C513.228 211.634 513.801 203.723 513.321 196.193C511.889 175.561 501.888 159.705 483.846 148.926C472.448 142.189 460.007 138.77 446.894 136.785C432.651 134.578 418.34 134.707 404.107 135.437C401.924 135.596 399.363 135.681 396.426 135.692C397.471 133.353 398.369 131.768 399.267 130.183C409.071 113.124 413.447 94.8049 412.244 75.0001C411.207 59.3373 408.363 43.9071 401.983 29.5445C396.966 17.2106 387.748 9.33605 375.078 5.0897C360.75 0.322246 346.059 -0.602521 331.46 2.9916C321.827 5.21157 312.12 7.80841 302.794 11.4583C279.855 20.6571 256.843 30.2327 234.661 40.5584C187.967 62.1223 142.865 86.5425 100.568 115.622C76.6013 132.056 53.6953 150.067 33.6637 171.381C25.0354 180.452 16.9354 189.821 11.2519 200.839C7.4382 208.31 3.55061 216.158 1.77278 224.224C-4.31442 248.273 7.72971 266.682 32.0752 271.262C39.2358 272.667 46.9212 273.391 54.0746 272.838C68.3814 271.73 82.7621 270.246 96.4594 267.258C121.371 261.968 145.976 255.249 170.281 249.058C172.314 248.674 174.194 248.064 176.227 247.68C176.53 248.131 176.681 248.356 176.984 248.807Z" fill="#F7D046"/>
</svg>